<svg width="51" height="38" viewBox="0 0 51 38" fill="none" xmlns="http://www.w3.org/2000/svg">
<path d="M17.5999 29.4243L45.0032 1.48886C45.6499 0.829622 46.4043 0.5 47.2666 0.5C48.1288 0.5 48.8833 0.829622 49.53 1.48886C50.1767 2.14811 50.5 2.93151 50.5 3.83906C50.5 4.74662 50.1767 5.52892 49.53 6.18597L19.8633 36.5111C19.2166 37.1704 18.4621 37.5 17.5999 37.5C16.7376 37.5 15.9831 37.1704 15.3365 36.5111L1.43272 22.3374C0.786034 21.6782 0.475625 20.8959 0.501492 19.9905C0.52736 19.0852 0.864713 18.3018 1.51355 17.6403C2.1624 16.9789 2.93088 16.6492 3.81899 16.6514C4.70711 16.6536 5.47451 16.9833 6.12119 17.6403L17.5999 29.4243Z" fill="#20DF33"/>
</svg>
