<svg width="153" height="31" viewBox="0 0 153 31" fill="none" xmlns="http://www.w3.org/2000/svg">
<path d="M14.4219 26.5V5.3623H19.5342L25.54 20.5527H25.6279L31.6338 5.3623H36.7461V26.5H32.8057V12.2031H30.7549L35.1787 5.94824L26.9756 26.5H24.1924L15.9893 5.94824L20.4131 12.2031H18.3623V26.5H14.4219ZM40.2617 26.5V5.3623H54.2656V9.00977H44.6855V14.0781H53.7236V17.5352H44.6855V22.8525H54.2656V26.5H40.2617ZM57.459 26.5V5.3623H65.5303C67.6494 5.3623 69.4561 5.76758 70.9502 6.57812C72.4541 7.38867 73.6064 8.5752 74.4072 10.1377C75.208 11.6904 75.6084 13.585 75.6084 15.8213V15.8506C75.6084 18.0869 75.208 20.001 74.4072 21.5928C73.6162 23.1846 72.4688 24.4004 70.9648 25.2402C69.4609 26.0801 67.6494 26.5 65.5303 26.5H57.459ZM61.8828 22.8379H65.0029C66.3213 22.8379 67.4346 22.5742 68.3428 22.0469C69.251 21.5195 69.9346 20.7383 70.3936 19.7031C70.8623 18.668 71.0967 17.3887 71.0967 15.8652V15.8359C71.0967 14.3613 70.8574 13.1162 70.3789 12.1006C69.9102 11.085 69.2217 10.3184 68.3135 9.80078C67.4053 9.27344 66.3018 9.00977 65.0029 9.00977H61.8828V22.8379ZM78.4648 26.5V5.3623H82.8887V26.5H78.4648ZM86.4043 26.5V5.3623H90.2715L101.771 21.9004L98.0645 19.1025H99.9102V5.3623H104.319V26.5H100.481L88.9678 9.85938L92.6738 12.6572H90.8135V26.5H86.4043ZM107.85 26.5V5.3623H121.854V9.00977H112.273V14.0781H121.312V17.5352H112.273V22.8525H121.854V26.5H107.85ZM130.101 26.5V9.00977H123.992V5.3623H140.647V9.00977H134.524V26.5H130.101Z" fill="black"/>
<ellipse cx="144.744" cy="24" rx="1.9" ry="1.9" fill="#003866"/>
</svg>
