<svg width="31" height="31" viewBox="0 0 31 31" fill="currentColor" xmlns="http://www.w3.org/2000/svg">
<path fill-rule="evenodd" clip-rule="evenodd" d="M15.5 0C11.3891 6.12565e-08 7.44666 1.63303 4.53984 4.53984C1.63303 7.44666 0 11.3891 0 15.5C0 19.6109 1.63303 23.5533 4.53984 26.4602C7.44666 29.367 11.3891 31 15.5 31H23.25C25.6577 31 26.8615 31 27.8104 30.6073C28.4375 30.3477 29.0072 29.967 29.4871 29.4871C29.967 29.0072 30.3477 28.4375 30.6073 27.8104C31 26.8615 31 25.6577 31 23.25V15.5C31 11.3891 29.367 7.44666 26.4602 4.53984C23.5533 1.63303 19.6109 0 15.5 0ZM8.61111 13.7778C8.61111 13.321 8.79256 12.883 9.11554 12.56C9.43852 12.237 9.87657 12.0556 10.3333 12.0556H20.6667C21.1234 12.0556 21.5615 12.237 21.8845 12.56C22.2074 12.883 22.3889 13.321 22.3889 13.7778C22.3889 14.2345 22.2074 14.6726 21.8845 14.9956C21.5615 15.3186 21.1234 15.5 20.6667 15.5H10.3333C9.87657 15.5 9.43852 15.3186 9.11554 14.9956C8.79256 14.6726 8.61111 14.2345 8.61111 13.7778ZM13.7778 20.6667C13.7778 20.2099 13.9592 19.7719 14.2822 19.4489C14.6052 19.1259 15.0432 18.9444 15.5 18.9444H20.6667C21.1234 18.9444 21.5615 19.1259 21.8845 19.4489C22.2074 19.7719 22.3889 20.2099 22.3889 20.6667C22.3889 21.1234 22.2074 21.5615 21.8845 21.8845C21.5615 22.2074 21.1234 22.3889 20.6667 22.3889H15.5C15.0432 22.3889 14.6052 22.2074 14.2822 21.8845C13.9592 21.5615 13.7778 21.1234 13.7778 20.6667Z" fill="currentColor"/>
</svg>
