<svg width="67" height="58" viewBox="0 0 67 58" fill="currentColor" xmlns="http://www.w3.org/2000/svg">
<g filter="url(#filter0_d_2321_978)">
<path d="M31.547 12.6925C32.0993 12.2445 32.7888 12 33.5 12C34.2112 12 34.9007 12.2445 35.453 12.6925L47.2764 22.2701C47.814 22.7054 48.2477 23.2552 48.5459 23.8793C48.8441 24.5035 48.9992 25.1863 49 25.878V39.9004C49 40.7225 48.6734 41.5109 48.092 42.0922C47.5107 42.6734 46.7222 43 45.9 43H41.25C40.4278 43 39.6393 42.6734 39.058 42.0922C38.4766 41.5109 38.15 40.7225 38.15 39.9004V32.1515C38.15 31.7405 37.9867 31.3463 37.696 31.0557C37.4053 30.765 37.0111 30.6017 36.6 30.6017H30.4C29.9889 30.6017 29.5947 30.765 29.304 31.0557C29.0133 31.3463 28.85 31.7405 28.85 32.1515V39.9004C28.85 40.7225 28.5234 41.5109 27.942 42.0922C27.3607 42.6734 26.5722 43 25.75 43H21.1C20.2778 43 19.4893 42.6734 18.908 42.0922C18.3266 41.5109 18 40.7225 18 39.9004V25.8811C17.9999 25.1884 18.1546 24.5043 18.4528 23.879C18.751 23.2537 19.1852 22.703 19.7236 22.267L31.547 12.6925Z" fill="currentColor"/>
</g>
<defs>
<filter id="filter0_d_2321_978" x="0" y="0" width="67" height="67" filterUnits="userSpaceOnUse" color-interpolation-filters="sRGB">
<feFlood flood-opacity="0" result="BackgroundImageFix"/>
<feColorMatrix in="SourceAlpha" type="matrix" values="0 0 0 0 0 0 0 0 0 0 0 0 0 0 0 0 0 0 127 0" result="hardAlpha"/>
<feOffset dy="6"/>
<feGaussianBlur stdDeviation="9"/>
<feComposite in2="hardAlpha" operator="out"/>
<feColorMatrix type="matrix" values="0 0 0 0 0 0 0 0 0 0 0 0 0 0 0 0 0 0 0.06 0"/>
<feBlend mode="normal" in2="BackgroundImageFix" result="effect1_dropShadow_2321_978"/>
<feBlend mode="normal" in="SourceGraphic" in2="effect1_dropShadow_2321_978" result="shape"/>
</filter>
</defs>
</svg>
