<svg width="31" height="31" viewBox="0 0 31 31" fill="currentColor" xmlns="http://www.w3.org/2000/svg">
<path fill-rule="evenodd" clip-rule="evenodd" d="M8.61111 6.88889C8.61111 5.06184 9.3369 3.30963 10.6288 2.01771C11.9207 0.725791 13.673 0 15.5 0C17.327 0 19.0793 0.725791 20.3712 2.01771C21.6631 3.30963 22.3889 5.06184 22.3889 6.88889C22.3889 8.71594 21.6631 10.4682 20.3712 11.7601C19.0793 13.052 17.327 13.7778 15.5 13.7778C13.673 13.7778 11.9207 13.052 10.6288 11.7601C9.3369 10.4682 8.61111 8.71594 8.61111 6.88889ZM8.61111 17.2222C6.3273 17.2222 4.13703 18.1295 2.52214 19.7444C0.907239 21.3593 0 23.5495 0 25.8333C0 27.2036 0.544344 28.5178 1.51328 29.4867C2.48222 30.4557 3.79638 31 5.16667 31H25.8333C27.2036 31 28.5178 30.4557 29.4867 29.4867C30.4557 28.5178 31 27.2036 31 25.8333C31 23.5495 30.0928 21.3593 28.4779 19.7444C26.863 18.1295 24.6727 17.2222 22.3889 17.2222H8.61111Z" fill="currentColor"/>
</svg>
