<svg width="28" height="31" viewBox="0 0 28 31" fill="currentColor" xmlns="http://www.w3.org/2000/svg">
<path d="M24.8889 3.1H18.3867C17.7333 1.302 16.0222 0 14 0C11.9778 0 10.2667 1.302 9.61333 3.1H3.11111C2.28599 3.1 1.49467 3.42661 0.911223 4.00797C0.327777 4.58933 0 5.37783 0 6.2V27.9C0 28.7222 0.327777 29.5107 0.911223 30.092C1.49467 30.6734 2.28599 31 3.11111 31H24.8889C25.714 31 26.5053 30.6734 27.0888 30.092C27.6722 29.5107 28 28.7222 28 27.9V6.2C28 5.37783 27.6722 4.58933 27.0888 4.00797C26.5053 3.42661 25.714 3.1 24.8889 3.1ZM14 3.1C14.4126 3.1 14.8082 3.2633 15.0999 3.55398C15.3917 3.84467 15.5556 4.23891 15.5556 4.65C15.5556 5.06109 15.3917 5.45533 15.0999 5.74602C14.8082 6.0367 14.4126 6.2 14 6.2C13.5874 6.2 13.1918 6.0367 12.9001 5.74602C12.6083 5.45533 12.4444 5.06109 12.4444 4.65C12.4444 4.23891 12.6083 3.84467 12.9001 3.55398C13.1918 3.2633 13.5874 3.1 14 3.1ZM3.11111 19.313H6.48667L11.6667 9.424L13.1289 20.2275L17.0022 15.283L21.0467 19.313H24.8889V21.7H20.0511L17.22 18.9255L11.48 26.226L10.2978 17.2825L7.94889 21.7H3.11111V19.313Z" fill="currentColor"/>
</svg>
